<?xml version="1.0" standalone="no"?>
<!DOCTYPE svg PUBLIC "-//W3C//DTD SVG 20010904//EN"
 "http://www.w3.org/TR/2001/REC-SVG-20010904/DTD/svg10.dtd">
<svg version="1.0" xmlns="http://www.w3.org/2000/svg"
 width="200pt" height="200pt" viewBox="0 0 200 200"
 preserveAspectRatio="xMidYMid meet">

<g transform="translate(0,200) scale(0.02777778,-0.02777778)"
fill="#000000" stroke="none">
<path d="M3450 5073 c-405 -64 -733 -247 -966 -537 -165 -206 -264 -434 -309
-706 -21 -134 -20 -142 14 -89 33 53 84 88 138 96 21 3 50 16 64 30 80 74 200
7 173 -96 -6 -20 -7 -47 -3 -61 13 -47 9 -130 -7 -162 -15 -29 -15 -34 0 -59
52 -88 -31 -185 -126 -146 -26 11 -40 25 -49 51 -11 30 -19 36 -62 47 -59 14
-113 59 -138 114 l-19 40 0 -50 c0 -66 23 -204 54 -318 134 -506 561 -915
1076 -1033 664 -152 1338 165 1643 772 80 160 147 407 147 541 l-1 68 -19 -37
c-26 -48 -73 -84 -132 -98 -30 -8 -48 -18 -48 -27 0 -8 -13 -28 -29 -44 -40
-40 -106 -41 -145 -3 -30 30 -36 96 -12 129 11 16 10 26 -7 74 -17 49 -18 63
-8 106 13 56 13 52 5 118 -6 43 -3 52 21 77 46 48 105 45 153 -6 13 -13 34
-24 47 -24 55 0 117 -42 156 -105 l19 -30 0 43 c0 24 -9 88 -20 142 -126 617
-588 1066 -1208 1175 -80 14 -334 19 -402 8z m53 -223 c52 -41 44 -136 -14
-165 -36 -19 -63 -19 -99 0 -37 19 -50 43 -50 90 0 79 100 125 163 75z m366
-1 c33 -31 44 -66 31 -104 -16 -49 -45 -70 -95 -70 -49 0 -89 29 -100 72 -8
33 11 89 38 108 32 22 99 19 126 -6z m-729 -104 c90 -46 54 -185 -48 -185 -51
0 -89 30 -98 76 -17 89 66 151 146 109z m1081 -14 c23 -23 29 -38 29 -71 0
-102 -139 -139 -186 -49 -53 103 76 201 157 120z m-470 -126 c133 -12 327 -89
454 -180 210 -150 355 -383 400 -644 29 -161 14 -322 -45 -495 -207 -611 -954
-857 -1495 -493 -79 53 -196 167 -251 243 -58 81 -129 231 -156 329 -19 68
-22 106 -22 255 0 149 3 187 22 255 46 166 137 322 261 446 167 166 385 269
616 289 79 6 104 6 216 -5z m772 -95 c60 -66 15 -160 -76 -160 -38 0 -49 5
-71 31 -87 103 56 228 147 129z m-1666 15 c67 -47 39 -165 -42 -181 -45 -8
-93 19 -111 62 -28 68 15 134 88 134 24 0 53 -7 65 -15z m-228 -289 c90 -47
53 -186 -49 -186 -101 0 -138 129 -52 183 33 20 65 21 101 3z m2102 -15 c62
-63 20 -171 -66 -171 -46 0 -105 53 -105 95 0 91 108 139 171 76z m-2113
-1042 c64 -22 84 -112 37 -163 -56 -61 -175 -16 -175 67 0 51 48 104 96 106 6
1 25 -4 42 -10z m2106 -10 c38 -30 49 -63 36 -110 -19 -71 -104 -92 -162 -40
-27 24 -33 36 -33 71 0 82 96 129 159 79z m-1875 -293 c93 -49 49 -186 -59
-186 -48 0 -90 47 -90 100 0 79 76 123 149 86z m1672 -15 c49 -49 38 -125 -23
-157 -43 -22 -90 -11 -123 28 -23 27 -26 39 -22 72 12 84 108 117 168 57z
m-1364 -206 c34 -23 47 -76 29 -120 -34 -79 -141 -81 -180 -2 -16 34 -17 42
-4 75 24 64 94 86 155 47z m1069 -6 c31 -29 38 -69 20 -112 -17 -42 -41 -57
-94 -57 -72 0 -120 76 -88 139 32 61 113 76 162 30z m-712 -120 c28 -33 34
-85 15 -121 -14 -27 -74 -51 -109 -43 -74 16 -104 122 -47 171 20 17 40 24 72
24 36 0 47 -5 69 -31z m367 2 c21 -21 29 -39 29 -64 0 -44 -39 -93 -79 -102
-36 -8 -95 16 -110 43 -19 36 -13 88 15 121 22 26 33 31 71 31 36 0 50 -6 74
-29z"/>
<path d="M3480 4579 c-77 -13 -215 -56 -275 -86 -68 -34 -165 -94 -165 -102 0
-7 86 -81 93 -81 3 0 19 13 36 29 66 62 168 45 205 -34 23 -47 20 -87 -10
-130 l-25 -38 25 -26 26 -25 84 22 c46 12 113 22 149 22 l65 0 121 194 c67
107 121 199 121 205 0 23 -200 61 -315 59 -44 0 -105 -4 -135 -9z m210 -124
c36 -19 60 -62 60 -110 0 -78 -51 -125 -134 -125 -117 0 -166 148 -75 225 36
29 103 34 149 10z"/>
<path d="M3934 4473 c-15 -27 -67 -112 -116 -190 -48 -78 -88 -146 -88 -152 0
-5 24 -17 54 -25 30 -9 85 -36 122 -61 37 -25 68 -45 69 -45 5 0 177 432 173
435 -9 10 -164 85 -174 85 -7 0 -25 -21 -40 -47z"/>
<path d="M4147 4343 c-15 -38 -29 -88 -33 -111 -4 -24 -17 -56 -29 -71 -21
-24 -62 -113 -80 -169 -5 -16 1 -32 23 -60 40 -52 76 -120 91 -173 12 -45 14
-47 67 -59 52 -13 55 -12 70 8 21 30 84 45 132 32 45 -11 67 -33 83 -78 9 -26
19 -34 62 -47 28 -8 53 -15 55 -15 3 0 2 39 0 88 -15 249 -147 510 -336 667
-36 30 -69 55 -73 55 -3 0 -18 -30 -32 -67z m201 -278 c32 -35 34 -41 30 -93
-4 -46 -10 -60 -36 -83 -59 -53 -136 -48 -187 13 -34 40 -41 88 -19 133 25 54
67 77 128 72 42 -4 55 -10 84 -42z"/>
<path d="M2937 4302 c-37 -37 -67 -71 -67 -75 0 -5 53 -70 118 -146 64 -75
132 -155 149 -176 29 -35 34 -38 43 -23 31 50 93 118 138 148 28 19 50 38 49
41 -3 9 -348 299 -356 299 -4 0 -37 -30 -74 -68z"/>
<path d="M2802 4133 c-117 -198 -165 -405 -143 -620 9 -83 34 -199 47 -212 2
-2 32 14 66 36 35 23 124 79 199 127 l136 86 5 92 c4 57 13 113 25 144 l20 51
-27 33 -27 33 -30 -22 c-46 -34 -101 -38 -143 -9 -77 52 -89 135 -30 198 34
36 32 46 -23 98 l-34 33 -41 -68z m142 -397 c66 -27 96 -94 74 -161 -29 -87
-150 -115 -216 -49 -7 7 -19 29 -28 49 -26 63 8 137 76 164 35 14 56 13 94 -3z"/>
<path d="M3296 3974 c-44 -43 -19 -116 42 -122 61 -6 99 80 54 121 -23 21 -76
22 -96 1z m48 -21 c4 -5 13 -8 19 -8 7 0 12 -6 11 -12 -4 -45 -4 -45 -31 -38
-31 7 -55 25 -35 25 7 0 12 9 12 20 0 20 11 26 24 13z"/>
<path d="M4137 3598 c-3 -46 -14 -109 -25 -140 l-20 -57 51 -5 c62 -7 154 -13
303 -22 l111 -6 13 52 c7 28 13 75 14 103 l1 51 -70 17 c-38 9 -131 30 -205
48 -74 17 -142 34 -151 36 -14 5 -17 -7 -22 -77z"/>
<path d="M3015 3459 c-49 -33 -136 -87 -192 -121 -57 -34 -103 -67 -103 -74 0
-19 82 -174 92 -174 10 0 397 157 417 169 11 7 9 15 -12 42 -30 40 -87 152
-87 172 0 7 -6 20 -12 29 -12 14 -24 8 -103 -43z"/>
<path d="M3858 3370 c-42 -25 -27 -109 22 -125 30 -9 75 12 88 41 29 62 -48
120 -110 84z m74 -45 c13 -29 12 -31 -25 -40 -21 -6 -27 -4 -27 9 0 9 -6 16
-12 16 -13 0 31 39 45 40 4 0 13 -11 19 -25z"/>
<path d="M4058 3343 c-31 -52 -89 -112 -138 -144 -47 -30 -50 -35 -50 -75 0
-47 11 -62 30 -39 21 25 86 38 125 25 40 -13 81 -58 90 -98 9 -44 -15 -103
-54 -129 -40 -27 -107 -31 -137 -8 -10 8 -22 15 -26 15 -8 0 2 -182 11 -192
10 -12 166 57 242 108 153 101 265 231 343 395 66 140 66 135 4 142 -29 4 -75
7 -102 7 -48 0 -48 0 -34 -22 42 -65 16 -155 -55 -191 -97 -49 -212 51 -178
156 7 19 19 41 27 47 25 21 15 30 -34 30 -41 0 -50 -4 -64 -27z"/>
<path d="M3174 3206 c-39 -17 -84 -41 -100 -52 -16 -12 -45 -25 -64 -28 -43
-9 -180 -59 -180 -66 0 -3 24 -35 54 -70 161 -194 411 -321 664 -337 68 -4 92
-3 92 6 0 28 -23 101 -32 101 -47 0 -118 77 -118 129 0 27 37 101 50 101 13 0
13 35 0 82 -10 34 -16 38 -76 58 -36 12 -95 42 -131 66 -36 24 -71 44 -77 43
-6 -1 -43 -15 -82 -33z m155 -108 c58 -36 77 -123 39 -178 -48 -70 -130 -82
-192 -27 -78 68 -50 194 49 220 25 7 83 -1 104 -15z"/>
<path d="M3771 3128 c-30 -10 -90 -22 -133 -25 -66 -5 -78 -9 -74 -22 3 -9 28
-109 57 -223 l51 -208 32 0 c28 0 165 26 172 32 2 2 -32 455 -35 466 -1 4 -13
0 -70 -20z"/>
<path d="M2333 3790 c-83 -19 -126 -77 -120 -163 3 -49 8 -62 37 -92 63 -65
150 -71 214 -15 44 39 60 79 53 136 -10 93 -95 154 -184 134z"/>
<path d="M4836 3785 c-65 -23 -98 -64 -104 -128 -10 -125 90 -206 203 -162 74
28 114 104 94 179 -13 51 -42 83 -94 107 -47 22 -49 22 -99 4z"/>
</g>
</svg>
